<?xml version="1.0" standalone="no"?><!DOCTYPE svg PUBLIC "-//W3C//DTD SVG 1.1//EN" "http://www.w3.org/Graphics/SVG/1.1/DTD/svg11.dtd"><svg t="1539692629816" class="icon" style="" viewBox="0 0 1024 1024" version="1.1" xmlns="http://www.w3.org/2000/svg" p-id="1390" xmlns:xlink="http://www.w3.org/1999/xlink" width="200" height="200"><defs><style type="text/css"></style></defs><path d="M801.792 446.976c-100.352-38.912-190.976-99.84-293.376-135.68-47.616-16.896-96.256-31.232-145.408-45.056-51.2-20.992-103.936-38.4-157.184-52.736-1.536-0.512-3.072 0-4.608 0.512-0.512-0.512-1.024-0.512-1.536-1.024-8.192-4.096-21.504 3.584-17.408 14.336 35.84 91.648 58.88 187.392 81.92 282.624 24.576 99.84 59.904 197.12 74.24 299.52 0.512 7.168 6.656 12.288 13.312 11.776h1.536c3.584 1.536 7.68 1.024 10.752-1.536 43.008-28.16 86.528-55.808 126.976-86.016 26.624 13.312 52.736 28.16 78.336 42.496 26.624 15.36 55.296 37.888 84.992 45.568 1.536 0.512 3.584 0.512 5.12 0 5.632 1.024 10.752-1.536 13.824-6.656 6.656-9.728 3.072-25.6 3.072-36.864-0.512-25.088-1.536-50.688-2.048-76.288-0.512-23.552-0.512-47.104-0.512-70.144 0-11.776 3.072-26.112 1.536-38.4 0-0.512 0-0.512 0.512-1.024 18.432-9.728 35.328-24.064 51.712-35.84 28.672-19.456 54.784-41.472 78.848-66.56 4.608-5.12 5.632-12.8 2.048-18.944 5.12-7.168 3.584-17.408-4.096-22.528-0.512-0.512-1.536-1.024-2.56-1.536z" fill="#E5CDFD" p-id="1391"></path><path d="M801.792 446.976c-100.352-38.912-190.976-99.84-293.376-135.68-47.616-16.896-96.256-31.232-145.408-45.056-51.2-20.992-103.936-38.4-157.184-52.736-1.536-0.512-3.072 0-4.608 0.512-0.512-0.512-1.024-0.512-1.536-1.024-8.192-4.096-21.504 3.584-17.408 14.336 35.84 91.648 58.88 187.392 81.92 282.624 24.576 99.84 59.904 197.12 74.24 299.52 0.512 7.168 6.656 12.288 13.312 11.776h1.536c3.584 1.536 7.68 1.024 10.752-1.536 43.008-28.16 86.528-55.808 126.976-86.016 26.624 13.312 52.736 28.16 78.336 42.496 26.624 15.36 55.296 37.888 84.992 45.568 1.536 0.512 3.584 0.512 5.12 0 5.632 1.024 10.752-1.536 13.824-6.656 6.656-9.728 3.072-25.6 3.072-36.864-0.512-25.088-1.536-50.688-2.048-76.288-0.512-23.552-0.512-47.104-0.512-70.144 0-11.776 3.072-26.112 1.536-38.4 0-0.512 0-0.512 0.512-1.024 18.432-9.728 35.328-24.064 51.712-35.84 28.672-19.456 54.784-41.472 78.848-66.56 4.608-5.12 5.632-12.8 2.048-18.944 5.12-7.168 3.584-17.408-4.096-22.528-0.512-0.512-1.536-1.024-2.56-1.536z m-435.2 338.944c-15.872-96.768-49.152-189.44-74.24-284.16-14.848-56.832-29.184-113.152-47.104-168.96 27.136 30.208 58.88 56.832 81.92 78.336 77.824 71.68 147.968 151.04 225.28 223.232-54.784 59.392-120.32 104.96-185.856 151.552z m217.088-34.816c-23.552-12.288-47.104-24.064-71.168-34.304 21.504-16.896 41.984-35.328 60.928-55.296 13.824 37.376 33.28 72.704 49.664 109.056-13.312-6.656-27.136-12.8-39.424-19.456z m62.464-67.072c-0.512 23.04-1.024 45.568-1.024 68.608-19.456-41.984-45.056-80.384-58.368-125.44 0-2.048-1.024-3.584-1.536-5.12-1.024-2.56-3.072-5.12-5.632-6.144-71.68-67.072-135.68-141.312-208.896-206.848-29.696-26.624-59.392-53.76-87.552-82.432-4.608-4.608-8.704-9.216-12.8-14.336 30.208 21.504 61.44 39.424 70.656 46.08 106.496 72.704 204.288 157.696 305.664 238.08 1.024 2.56 2.56 4.096 5.12 5.12-8.192 25.088-5.12 65.536-5.632 83.456v-1.024z m58.88-149.504c-13.824 9.728-27.136 19.968-40.448 30.72-91.648-72.704-180.224-152.576-278.528-216.064-33.792-21.504-67.584-43.52-101.376-65.536-16.896-10.752-45.056-24.064-62.464-39.424l-3.584-6.144c37.888 19.456 77.312 35.328 117.76 47.616 31.744 12.8 63.488 24.064 95.232 33.792 3.072 1.024 6.144 0 8.192-2.048 14.848 4.608 29.696 9.216 44.032 14.336 103.936 34.816 195.584 96.256 296.448 137.216-23.04 24.576-48.64 46.08-75.264 65.536z" fill="#723FA6" p-id="1392"></path></svg>